# xmcd
#
# Track frame offsets:
#	150
#	19195
#	43515
#	64910
#	81102
#	97197
#	123670
#	143285
#	169327
#	193245
#	215037
#	225122
#	229477
#
# Disc length: 3321 seconds
#
# Revision: 1
# Processed by: cddbd v1.5.1PL0 Copyright (c) Steve Scherf et al.
# Submitted via: audiograbber 1.83.01
#
DISCID=b70cf70d
DTITLE=Otis Grand - He Knows The Blues
DYEAR=1990
DGENRE=Blues
TTITLE0=Things are getting harder to do
TTITLE1=You hurt me
TTITLE2=Jumpin' for Jimmy
TTITLE3=Grand style
TTITLE4=Real gone lover
TTITLE5=SRV (my mood too)
TTITLE6=Leave that girl
TTITLE7=Ham
TTITLE8=Your love pulls no punches
TTITLE9=Swing turn
TTITLE10=Teach me how to love you
TTITLE11=He knows the blues
TTITLE12=She torture me
EXTD=
EXTT0=
EXTT1=
EXTT2=
EXTT3=
EXTT4=
EXTT5=
EXTT6=
EXTT7=
EXTT8=
EXTT9=
EXTT10=
EXTT11=
EXTT12=
PLAYORDER=
